<svg width="297" height="57" viewBox="0 0 297 57" fill="none" xmlns="http://www.w3.org/2000/svg">
<rect x="102.763" width="193.259" height="57" fill="#FFBC42"/>
<path d="M113.401 35C112.734 35 112.161 34.7667 111.681 34.3C111.214 33.82 110.981 33.2467 110.981 32.58V23.4H112.621V32.58C112.621 32.7933 112.694 32.98 112.841 33.14C113.001 33.2867 113.188 33.36 113.401 33.36H120.361C120.574 33.36 120.761 33.2867 120.921 33.14C121.081 32.98 121.161 32.7933 121.161 32.58V23.4H122.801V32.58C122.801 33.2467 122.561 33.82 122.081 34.3C121.614 34.7667 121.041 35 120.361 35H113.401ZM125.005 35V23.4H134.405C135.072 23.4 135.638 23.64 136.105 24.12C136.585 24.5867 136.825 25.1533 136.825 25.82V35H135.185V25.82C135.185 25.6067 135.105 25.4267 134.945 25.28C134.798 25.12 134.618 25.04 134.405 25.04H127.445C127.232 25.04 127.045 25.12 126.885 25.28C126.725 25.4267 126.645 25.6067 126.645 25.82V35H125.005ZM140.751 35C140.071 35 139.491 34.7667 139.011 34.3C138.544 33.82 138.311 33.2467 138.311 32.58V25.82C138.311 25.1533 138.544 24.5867 139.011 24.12C139.491 23.64 140.071 23.4 140.751 23.4H148.491V19.6H150.131V35H140.751ZM140.751 33.36H147.711C147.924 33.36 148.104 33.2867 148.251 33.14C148.411 32.98 148.491 32.7933 148.491 32.58V25.82C148.491 25.6067 148.411 25.4267 148.251 25.28C148.104 25.12 147.924 25.04 147.711 25.04H140.751C140.537 25.04 140.351 25.12 140.191 25.28C140.044 25.4267 139.971 25.6067 139.971 25.82V32.58C139.971 32.7933 140.044 32.98 140.191 33.14C140.351 33.2867 140.537 33.36 140.751 33.36ZM154.24 35C153.573 35 153 34.7667 152.52 34.3C152.053 33.82 151.82 33.2467 151.82 32.58V25.82C151.82 25.1533 152.053 24.5867 152.52 24.12C153 23.64 153.573 23.4 154.24 23.4H161.2C161.88 23.4 162.453 23.64 162.92 24.12C163.4 24.5867 163.64 25.1533 163.64 25.82V30.02H153.46V32.58C153.46 32.7933 153.533 32.98 153.68 33.14C153.84 33.2867 154.027 33.36 154.24 33.36H163.64V35H154.24ZM153.46 28.38H161.98V25.82C161.98 25.6067 161.9 25.4267 161.74 25.28C161.593 25.12 161.413 25.04 161.2 25.04H154.24C154.027 25.04 153.84 25.12 153.68 25.28C153.533 25.4267 153.46 25.6067 153.46 25.82V28.38ZM165.59 35V25.82C165.59 25.1533 165.823 24.5867 166.29 24.12C166.77 23.64 167.343 23.4 168.01 23.4H174.53V25.04H168.01C167.797 25.04 167.61 25.12 167.45 25.28C167.303 25.4267 167.23 25.6067 167.23 25.82V35H165.59ZM181.314 39.6V23.4H190.714C191.38 23.4 191.947 23.64 192.414 24.12C192.894 24.5867 193.134 25.1533 193.134 25.82V32.58C193.134 33.2467 192.894 33.82 192.414 34.3C191.947 34.7667 191.38 35 190.714 35H182.954V39.6H181.314ZM183.754 33.36H190.714C190.927 33.36 191.107 33.2867 191.254 33.14C191.414 32.98 191.494 32.7933 191.494 32.58V25.82C191.494 25.6067 191.414 25.4267 191.254 25.28C191.107 25.12 190.927 25.04 190.714 25.04H183.754C183.54 25.04 183.354 25.12 183.194 25.28C183.034 25.4267 182.954 25.6067 182.954 25.82V32.58C182.954 32.7933 183.034 32.98 183.194 33.14C183.354 33.2867 183.54 33.36 183.754 33.36ZM194.555 35V25.82C194.555 25.1533 194.788 24.5867 195.255 24.12C195.735 23.64 196.308 23.4 196.975 23.4H203.495V25.04H196.975C196.762 25.04 196.575 25.12 196.415 25.28C196.268 25.4267 196.195 25.6067 196.195 25.82V35H194.555ZM207.189 35C206.523 35 205.949 34.7667 205.469 34.3C205.003 33.82 204.769 33.2467 204.769 32.58V25.82C204.769 25.1533 205.003 24.5867 205.469 24.12C205.949 23.64 206.523 23.4 207.189 23.4H214.149C214.829 23.4 215.403 23.64 215.869 24.12C216.349 24.5867 216.589 25.1533 216.589 25.82V30.02H206.409V32.58C206.409 32.7933 206.483 32.98 206.629 33.14C206.789 33.2867 206.976 33.36 207.189 33.36H216.589V35H207.189ZM206.409 28.38H214.929V25.82C214.929 25.6067 214.849 25.4267 214.689 25.28C214.543 25.12 214.363 25.04 214.149 25.04H207.189C206.976 25.04 206.789 25.12 206.629 25.28C206.483 25.4267 206.409 25.6067 206.409 25.82V28.38ZM220.977 35C220.31 35 219.737 34.7667 219.257 34.3C218.79 33.82 218.557 33.2467 218.557 32.58V32.42H220.197V32.58C220.197 32.7933 220.27 32.98 220.417 33.14C220.577 33.2867 220.764 33.36 220.977 33.36H227.937C228.15 33.36 228.33 33.2867 228.477 33.14C228.637 32.98 228.717 32.7933 228.717 32.58V30.8C228.717 30.5867 228.637 30.4067 228.477 30.26C228.33 30.1 228.15 30.02 227.937 30.02H220.977C220.31 30.02 219.737 29.7867 219.257 29.32C218.79 28.84 218.557 28.2667 218.557 27.6V25.82C218.557 25.1533 218.79 24.5867 219.257 24.12C219.737 23.64 220.31 23.4 220.977 23.4H227.937C228.617 23.4 229.19 23.64 229.657 24.12C230.137 24.5867 230.377 25.1533 230.377 25.82V25.98H228.717V25.82C228.717 25.6067 228.637 25.4267 228.477 25.28C228.33 25.12 228.15 25.04 227.937 25.04H220.977C220.764 25.04 220.577 25.12 220.417 25.28C220.27 25.4267 220.197 25.6067 220.197 25.82V27.6C220.197 27.8133 220.27 28 220.417 28.16C220.577 28.3067 220.764 28.38 220.977 28.38H227.937C228.617 28.38 229.19 28.62 229.657 29.1C230.137 29.5667 230.377 30.1333 230.377 30.8V32.58C230.377 33.2467 230.137 33.82 229.657 34.3C229.19 34.7667 228.617 35 227.937 35H220.977ZM234.688 35C234.021 35 233.448 34.7667 232.968 34.3C232.501 33.82 232.268 33.2467 232.268 32.58V32.42H233.908V32.58C233.908 32.7933 233.981 32.98 234.128 33.14C234.288 33.2867 234.475 33.36 234.688 33.36H241.648C241.861 33.36 242.041 33.2867 242.188 33.14C242.348 32.98 242.428 32.7933 242.428 32.58V30.8C242.428 30.5867 242.348 30.4067 242.188 30.26C242.041 30.1 241.861 30.02 241.648 30.02H234.688C234.021 30.02 233.448 29.7867 232.968 29.32C232.501 28.84 232.268 28.2667 232.268 27.6V25.82C232.268 25.1533 232.501 24.5867 232.968 24.12C233.448 23.64 234.021 23.4 234.688 23.4H241.648C242.328 23.4 242.901 23.64 243.368 24.12C243.848 24.5867 244.088 25.1533 244.088 25.82V25.98H242.428V25.82C242.428 25.6067 242.348 25.4267 242.188 25.28C242.041 25.12 241.861 25.04 241.648 25.04H234.688C234.475 25.04 234.288 25.12 234.128 25.28C233.981 25.4267 233.908 25.6067 233.908 25.82V27.6C233.908 27.8133 233.981 28 234.128 28.16C234.288 28.3067 234.475 28.38 234.688 28.38H241.648C242.328 28.38 242.901 28.62 243.368 29.1C243.848 29.5667 244.088 30.1333 244.088 30.8V32.58C244.088 33.2467 243.848 33.82 243.368 34.3C242.901 34.7667 242.328 35 241.648 35H234.688ZM248.108 35C247.442 35 246.868 34.7667 246.388 34.3C245.922 33.82 245.688 33.2467 245.688 32.58V23.4H247.328V32.58C247.328 32.7933 247.402 32.98 247.548 33.14C247.708 33.2867 247.895 33.36 248.108 33.36H255.068C255.282 33.36 255.468 33.2867 255.628 33.14C255.788 32.98 255.868 32.7933 255.868 32.58V23.4H257.508V32.58C257.508 33.2467 257.268 33.82 256.788 34.3C256.322 34.7667 255.748 35 255.068 35H248.108ZM259.574 35V25.82C259.574 25.1533 259.808 24.5867 260.274 24.12C260.754 23.64 261.328 23.4 261.994 23.4H268.514V25.04H261.994C261.781 25.04 261.594 25.12 261.434 25.28C261.288 25.4267 261.214 25.6067 261.214 25.82V35H259.574ZM272.209 35C271.542 35 270.969 34.7667 270.489 34.3C270.022 33.82 269.789 33.2467 269.789 32.58V25.82C269.789 25.1533 270.022 24.5867 270.489 24.12C270.969 23.64 271.542 23.4 272.209 23.4H279.169C279.849 23.4 280.422 23.64 280.889 24.12C281.369 24.5867 281.609 25.1533 281.609 25.82V30.02H271.429V32.58C271.429 32.7933 271.502 32.98 271.649 33.14C271.809 33.2867 271.995 33.36 272.209 33.36H281.609V35H272.209ZM271.429 28.38H279.949V25.82C279.949 25.6067 279.869 25.4267 279.709 25.28C279.562 25.12 279.382 25.04 279.169 25.04H272.209C271.995 25.04 271.809 25.12 271.649 25.28C271.502 25.4267 271.429 25.6067 271.429 25.82V28.38Z" fill="#006BA6"/>
<line x1="1" y1="1.5" x2="103.254" y2="1.5" stroke="#FFBC42" stroke-width="3"/>
<line x1="0.509888" y1="55.5" x2="102.763" y2="55.5" stroke="#FFBC42" stroke-width="3"/>
<line x1="2.00989" y1="3" x2="2.00989" y2="55" stroke="#FFBC42" stroke-width="3"/>
<path d="M19.4352 48C17.7686 48 16.3519 47.4167 15.1852 46.25C14.0186 45.0833 13.4352 43.6667 13.4352 42V12H17.4852V42C17.4852 42.5333 17.6686 43 18.0352 43.4C18.4352 43.7667 18.9019 43.95 19.4352 43.95H43.4352C43.9686 43.95 44.4186 43.7667 44.7852 43.4C45.1852 43 45.3852 42.5333 45.3852 42V12H49.4352V42C49.4352 43.6667 48.8519 45.0833 47.6852 46.25C46.5186 47.4167 45.1019 48 43.4352 48H19.4352ZM54.9415 48V12.05H84.9415C86.6081 12.05 88.0248 12.65 89.1915 13.85C90.3581 15.0167 90.9415 16.4167 90.9415 18.05V28.6C90.9415 30.2333 90.3581 31.65 89.1915 32.85C88.0248 34.0167 86.6081 34.6 84.9415 34.6H58.9915V48H54.9415ZM60.9415 30.5H84.9415C85.4748 30.5 85.9248 30.3167 86.2915 29.95C86.6915 29.5833 86.8915 29.1333 86.8915 28.6V18.05C86.8915 17.5167 86.6915 17.0667 86.2915 16.7C85.9248 16.3 85.4748 16.1 84.9415 16.1H60.9415C60.4081 16.1 59.9415 16.3 59.5415 16.7C59.1748 17.0667 58.9915 17.5167 58.9915 18.05V28.6C58.9915 29.1333 59.1748 29.5833 59.5415 29.95C59.9415 30.3167 60.4081 30.5 60.9415 30.5Z" fill="#FFBC42"/>
</svg>
