<svg width="103" height="52" viewBox="0 0 103 52" fill="none" xmlns="http://www.w3.org/2000/svg">
<line x1="1.5" x2="1.5" y2="52" stroke="#FFBC42" stroke-width="3"/>
<line x1="100.529" x2="100.529" y2="52" stroke="#FFBC42" stroke-width="3"/>
<path d="M0 49H101.01V52H0V49Z" fill="#FFBC42"/>
<rect x="0.990295" width="101.01" height="3" fill="#FFBC42"/>
<path d="M18.6029 45C17.5029 45 16.4862 44.7333 15.5529 44.2C14.6529 43.6667 13.9362 42.95 13.4029 42.05C12.8696 41.1167 12.6029 40.1 12.6029 39V9H16.6529V39C16.6529 39.5333 16.8362 40 17.2029 40.4C17.6029 40.7667 18.0696 40.95 18.6029 40.95H42.6029C43.1362 40.95 43.5862 40.7667 43.9529 40.4C44.3529 40 44.5529 39.5333 44.5529 39V9H48.6029V39C48.6029 40.1 48.3362 41.1167 47.8029 42.05C47.2696 42.95 46.5362 43.6667 45.6029 44.2C44.7029 44.7333 43.7029 45 42.6029 45H18.6029ZM54.1091 45V9.05H84.1091C85.2091 9.05 86.2091 9.33333 87.1091 9.9C88.0425 10.4333 88.7758 11.15 89.3091 12.05C89.8425 12.95 90.1091 13.95 90.1091 15.05V25.6C90.1091 26.7 89.8425 27.7 89.3091 28.6C88.7758 29.5 88.0425 30.2333 87.1091 30.8C86.2091 31.3333 85.2091 31.6 84.1091 31.6H58.1591V45H54.1091ZM60.1091 27.5H84.1091C84.6425 27.5 85.0925 27.3167 85.4591 26.95C85.8591 26.5833 86.0591 26.1333 86.0591 25.6V15.05C86.0591 14.5167 85.8591 14.0667 85.4591 13.7C85.0925 13.3 84.6425 13.1 84.1091 13.1H60.1091C59.5758 13.1 59.1091 13.3 58.7091 13.7C58.3425 14.0667 58.1591 14.5167 58.1591 15.05V25.6C58.1591 26.1333 58.3425 26.5833 58.7091 26.95C59.1091 27.3167 59.5758 27.5 60.1091 27.5Z" fill="#FFBC42"/>
</svg>
