<svg width="589" height="429" viewBox="0 0 589 429" fill="none" xmlns="http://www.w3.org/2000/svg">
<path d="M588.927 424.873C593.014 430.376 422.754 430.376 426.853 424.872C422.766 419.371 593.026 419.371 588.927 424.873Z" fill="#E6E6E6"/>
<path d="M532.414 264.267C541.425 283.177 543.805 390.804 544.336 425.303C544.349 426.08 544.363 426.818 544.37 427.514H567.179C567.458 426.777 567.717 426.05 567.961 425.303C581.481 385.685 573.98 338.182 573.586 335.779C574.613 343.331 569.968 365.22 564.717 386.422C561.514 321.23 534.128 267.558 532.414 264.267Z" fill="#E6E6E6"/>
<path d="M103.973 53.9006C86.1161 91.3754 81.3992 304.66 80.3479 373.027C80.321 374.567 80.294 376.028 80.2805 377.408H35.0786C34.526 375.948 34.0138 374.507 33.5287 373.027C6.73629 294.516 21.6015 200.379 22.3831 195.617C20.3482 210.582 29.5529 253.96 39.9573 295.976C46.3049 166.785 100.577 60.4232 103.973 53.9006Z" fill="#E6E6E6"/>
<path d="M313.956 375.201C321.869 388.752 -7.79561 388.752 0.141054 375.198C-7.77162 361.65 321.893 361.65 313.956 375.201Z" fill="#E6E6E6"/>
<path d="M484.192 367.61C482.925 367.61 482.899 373.468 484.192 373.468H531.527C532.081 373.495 532.538 372.205 532.547 370.587C532.558 368.936 532.093 367.58 531.527 367.61H484.192Z" fill="#3F3D56"/>
<path d="M499.139 345.79C497.494 345.79 497.485 351.648 499.139 351.648H516.564C517.278 351.675 517.866 350.385 517.878 348.767C517.891 347.116 517.293 345.76 516.564 345.79H499.139Z" fill="#006BA6"/>
<path d="M484.192 390.238C482.925 390.238 482.899 396.097 484.192 396.097H531.527C532.081 396.123 532.538 394.833 532.547 393.216C532.558 391.564 532.093 390.208 531.527 390.238H484.192Z" fill="#3F3D56"/>
<path d="M541.641 316.797H474.14C473.418 316.797 472.726 317.223 472.215 317.981C471.705 318.738 471.418 319.766 471.418 320.838V421.049C471.418 422.12 471.705 423.148 472.215 423.906C472.726 424.663 473.418 425.089 474.14 425.09H541.641C542.362 425.089 543.055 424.663 543.565 423.906C544.075 423.148 544.362 422.12 544.362 421.049V320.838C544.362 319.766 544.075 318.738 543.565 317.981C543.055 317.223 542.362 316.797 541.641 316.797ZM543.274 421.049C543.272 421.691 543.1 422.307 542.794 422.761C542.488 423.215 542.073 423.471 541.641 423.473H474.14C473.707 423.471 473.292 423.215 472.986 422.761C472.68 422.307 472.508 421.691 472.506 421.049V320.838C472.508 320.195 472.68 319.58 472.986 319.125C473.292 318.671 473.707 318.415 474.14 318.413H541.641C542.073 318.415 542.488 318.671 542.794 319.125C543.1 319.58 543.272 320.195 543.274 320.838V421.049Z" fill="#3F3D56"/>
<path d="M448.42 237.252L453.896 233.187L449.332 214.895L448.13 205.671C447.973 204.472 447.608 203.355 447.07 202.432C446.532 201.509 445.84 200.812 445.064 200.41C444.287 200.008 443.453 199.916 442.645 200.142C441.837 200.368 441.084 200.906 440.459 201.7C439.534 202.877 438.953 204.542 438.839 206.343C438.725 208.144 439.087 209.941 439.848 211.353L444.312 219.638L448.42 237.252Z" fill="#A0616A"/>
<path d="M446.593 235.219L447.603 239.913L452.135 260.995C452.579 263.062 453.415 264.895 454.543 266.274C455.671 267.653 457.043 268.52 458.494 268.77C459.945 269.021 461.415 268.644 462.726 267.685C464.036 266.727 465.133 265.227 465.884 263.366L480.578 225.979C480.813 225.397 481.013 224.785 481.177 224.151C481.887 221.384 481.852 218.318 481.078 215.589C480.305 212.86 478.853 210.678 477.024 209.497C475.196 208.316 473.131 208.227 471.259 209.247C469.386 210.268 467.851 212.32 466.972 214.978L458.002 243.35L453.896 229.801L446.593 235.219Z" fill="#E6E6E6"/>
<path d="M448.708 371.404L458.747 372.759L464.223 313.818C482.274 318.327 499.303 319.771 514.033 314.317C515.278 313.863 516.446 313.031 517.463 311.875C518.481 310.718 519.327 309.262 519.948 307.597C520.569 305.932 520.951 304.094 521.07 302.2C521.19 300.305 521.044 298.394 520.643 296.587C518.88 288.776 515.774 280.406 512.139 271.815L487.953 284.687L487.04 290.107L461.243 285.259C459.94 285.014 458.617 285.174 457.358 285.729C456.099 286.284 454.932 287.222 453.93 288.482C452.929 289.743 452.115 291.299 451.54 293.052C450.965 294.805 450.642 296.716 450.592 298.664L448.708 371.404Z" fill="#2F2E41"/>
<path d="M437.774 382.825C437.678 381.816 437.778 380.788 438.063 379.862C438.347 378.935 438.805 378.149 439.381 377.597L449.687 370.088L457.456 371.545L459.291 381.311C459.369 382.007 459.35 382.719 459.237 383.403C459.123 384.088 458.917 384.732 458.63 385.294C458.344 385.857 457.983 386.327 457.57 386.676C457.157 387.025 456.701 387.246 456.229 387.325L441.73 387.372C440.802 387.527 439.87 387.138 439.131 386.289C438.392 385.44 437.906 384.198 437.774 382.825Z" fill="#2F2E41"/>
<path d="M446.171 363.868L456.211 365.223L461.687 306.282C479.738 310.791 496.767 312.235 511.497 306.781C512.741 306.327 513.909 305.495 514.927 304.339C515.945 303.182 516.791 301.726 517.412 300.061C518.033 298.396 518.415 296.558 518.534 294.664C518.654 292.769 518.508 290.858 518.107 289.051C516.344 281.24 513.238 272.87 509.602 264.279L485.417 277.151L484.504 282.571L458.707 277.723C457.404 277.478 456.081 277.638 454.822 278.193C453.563 278.748 452.396 279.686 451.394 280.946C450.393 282.207 449.579 283.763 449.004 285.516C448.429 287.269 448.106 289.18 448.056 291.128L446.171 363.868Z" fill="#2F2E41"/>
<path d="M435.238 375.288C435.142 374.28 435.242 373.252 435.526 372.326C435.811 371.399 436.269 370.613 436.845 370.061L447.15 362.552L454.92 364.009L456.755 373.775C456.833 374.471 456.814 375.183 456.7 375.867C456.587 376.552 456.38 377.196 456.094 377.758C455.807 378.321 455.447 378.791 455.034 379.14C454.621 379.489 454.165 379.71 453.693 379.788L439.194 379.836C438.266 379.991 437.334 379.602 436.595 378.753C435.856 377.904 435.37 376.662 435.238 375.288Z" fill="#2F2E41"/>
<path d="M464.425 202.629C471.23 202.629 476.746 194.439 476.746 184.337C476.746 174.234 471.23 166.045 464.425 166.045C457.62 166.045 452.104 174.234 452.104 184.337C452.104 194.439 457.62 202.629 464.425 202.629Z" fill="#A0616A"/>
<path d="M464.882 221.598L479.028 218.888L473.552 193.821H459.861L464.882 221.598Z" fill="#A0616A"/>
<path d="M461.032 246.873C461.749 249.832 462.789 252.595 464.111 255.053C465.994 258.484 468.257 261.415 470.803 263.72C471.246 264.146 471.706 264.555 472.182 264.957L474.9 268.395L484.503 280.536L510.971 265.633C505.133 246.373 497.85 231.148 489.503 218.885C487.769 215.109 485.297 212.213 482.42 210.587C479.544 208.961 476.4 208.683 473.414 209.791L463.511 213.466C459.989 225.809 458.679 237.158 461.032 246.873Z" fill="#E6E6E6"/>
<path d="M439.471 194.166C439.316 193.94 439.114 193.799 438.899 193.768C438.683 193.736 438.466 193.815 438.285 193.992C438.043 194.372 430.116 201.345 430.613 202.037C430.598 202.247 430.615 202.459 430.663 202.658C430.711 202.856 430.788 203.037 430.889 203.185L449.311 230.416C449.4 230.549 449.507 230.653 449.624 230.724C449.741 230.795 449.866 230.83 449.992 230.828C450.363 231.532 456.401 221.316 456.706 221.121C456.88 220.851 456.976 220.491 456.972 220.117C456.969 219.743 456.866 219.387 456.686 219.125L439.471 194.166Z" fill="#3F3D56"/>
<path d="M432.468 201.746L433.218 201.037C433.143 201.246 433.117 201.486 433.144 201.719C433.171 201.952 433.25 202.166 433.368 202.325C433.486 202.485 433.636 202.582 433.795 202.6C433.954 202.619 434.112 202.559 434.246 202.429L439.097 197.478C439.206 197.364 439.291 197.207 439.343 197.026C439.395 196.844 439.413 196.645 439.393 196.449C439.374 196.254 439.318 196.071 439.232 195.92C439.147 195.768 439.035 195.656 438.908 195.593C439.1 195.497 439.411 194.918 439.619 195.282L455.939 219.092C456.521 219.512 450.009 227.889 450.006 228.218C449.52 229.022 432.78 202.363 432.424 202.345C432.396 202.304 432.375 202.254 432.362 202.2C432.35 202.145 432.345 202.087 432.349 202.03C432.354 201.972 432.367 201.917 432.387 201.868C432.408 201.819 432.435 201.778 432.468 201.746Z" fill="white"/>
<path d="M451.304 213.835L446.298 220.842L434.389 203.376L440.433 197.536L451.304 213.835Z" fill="#006BA6"/>
<path d="M434.852 207.686C435.137 207.377 433.865 206.003 433.811 205.777C433.778 205.73 433.734 205.704 433.688 205.704C433.643 205.704 433.599 205.73 433.566 205.777C433.281 206.086 434.552 207.46 434.607 207.687C434.64 207.733 434.684 207.759 434.729 207.759C434.775 207.759 434.819 207.733 434.852 207.686Z" fill="#E6E6E6"/>
<path d="M436.606 209.927C436.45 209.841 435.532 207.962 435.32 208.381C435.035 208.69 436.307 210.065 436.361 210.291C436.518 210.529 436.768 210.16 436.606 209.927Z" fill="#E6E6E6"/>
<path d="M450.019 219.85C449.997 222.102 452.38 222.102 452.358 219.85C452.38 217.597 449.996 217.597 450.019 219.85Z" fill="#006BA6"/>
<path opacity="0.2" d="M464.111 255.053C465.994 258.484 468.257 261.415 470.802 263.72C471.246 264.146 471.706 264.555 472.182 264.957L474.9 268.395C480.294 257.868 479.991 225.888 479.991 225.888L471.78 227.107L464.111 255.053Z" fill="black"/>
<path d="M447.997 246.664L453.473 242.6L448.909 224.308L447.707 215.083C447.551 213.885 447.185 212.768 446.647 211.845C446.109 210.922 445.417 210.224 444.641 209.822C443.865 209.42 443.031 209.328 442.223 209.555C441.415 209.781 440.661 210.318 440.037 211.113C439.111 212.29 438.531 213.955 438.417 215.756C438.303 217.557 438.664 219.353 439.425 220.766L443.89 229.05L447.997 246.664Z" fill="#A0616A"/>
<path d="M453.473 239.212L446.171 244.632L451.712 270.407C452.11 272.258 452.824 273.925 453.783 275.246C454.743 276.568 455.916 277.498 457.189 277.948C458.759 278.503 460.407 278.301 461.894 277.372C463.382 276.443 464.631 274.835 465.461 272.78L480.154 235.391C481.196 232.815 481.517 229.736 481.05 226.813C480.583 223.889 479.364 221.353 477.654 219.745C476.735 218.881 475.703 218.313 474.626 218.08C473.549 217.847 472.451 217.953 471.403 218.391C470.355 218.829 469.382 219.59 468.545 220.624C467.709 221.658 467.028 222.942 466.548 224.392L457.58 252.762L453.473 239.212Z" fill="#E6E6E6"/>
<path d="M459.787 177.212C458.783 178.455 457.65 179.448 456.432 180.152C455.82 180.498 455.166 180.641 454.513 180.571C453.861 180.502 453.226 180.221 452.655 179.749C452.028 179.081 451.533 178.174 451.223 177.125C450.913 176.076 450.799 174.922 450.892 173.784C451.101 171.508 451.716 169.357 452.675 167.554C454.329 164.139 456.504 161.353 459.021 159.424C461.539 157.495 464.328 156.477 467.161 156.454C469.995 156.431 472.791 157.403 475.323 159.29C477.855 161.178 480.05 163.928 481.729 167.316C482.953 169.584 483.706 172.332 483.896 175.225C484.072 180.307 481.73 185.05 481.98 190.125C482.192 194.417 484.267 198.094 486.725 200.377C489.183 202.659 492.023 203.816 494.771 205.186C497.519 206.557 500.298 208.248 502.332 211.315C504.366 214.382 505.487 219.14 504.371 223.112C503.454 226.376 501.274 228.451 499.088 229.857C493.227 233.583 486.643 233.95 480.61 230.887C478.386 229.742 475.957 227.452 475.923 223.957C475.908 222.44 476.368 221.017 476.644 219.556C476.92 218.096 476.972 216.354 476.28 215.239C475.421 213.855 473.834 214.174 472.807 215.277C471.781 216.38 471.114 218.054 470.267 219.453C468.659 222.11 466.221 223.808 463.839 223.307C461.457 222.807 459.304 219.794 459.205 216.225C459.036 210.094 464.21 206.256 464.772 200.177C465.148 196.117 463.367 192.403 461.825 189.005C460.282 185.606 458.847 181.349 459.927 177.577" fill="#2F2E41"/>
<path d="M288.094 372.644H84.796C83.7978 372.642 82.8409 372.052 82.1352 371.005C81.4294 369.957 81.0324 368.536 81.0312 367.055V108.963C81.0324 107.481 81.4294 106.061 82.1352 105.013C82.8409 103.965 83.7978 103.376 84.796 103.374H288.094C289.092 103.376 290.049 103.965 290.755 105.013C291.461 106.061 291.858 107.481 291.859 108.963V367.055C291.858 368.536 291.461 369.957 290.755 371.005C290.049 372.053 289.092 372.642 288.094 372.644ZM84.796 105.61C84.1971 105.611 83.6229 105.964 83.1994 106.593C82.776 107.222 82.5378 108.074 82.5371 108.963V367.055C82.5378 367.944 82.776 368.796 83.1994 369.425C83.6229 370.053 84.1971 370.407 84.796 370.408H288.094C288.693 370.407 289.267 370.053 289.691 369.425C290.114 368.796 290.353 367.944 290.353 367.055V108.963C290.353 108.074 290.114 107.222 289.691 106.593C289.267 105.964 288.693 105.611 288.094 105.61H84.796Z" fill="#3F3D56"/>
<path d="M116.384 349.515C124.854 349.515 131.72 339.322 131.72 326.748C131.72 314.174 124.854 303.981 116.384 303.981C107.915 303.981 101.049 314.174 101.049 326.748C101.049 339.322 107.915 349.515 116.384 349.515Z" fill="#E6E6E6"/>
<path d="M151.803 311.57C151.125 311.571 150.476 311.972 149.998 312.683C149.519 313.395 149.25 314.359 149.25 315.364C149.25 316.37 149.519 317.334 149.998 318.046C150.476 318.757 151.125 319.158 151.803 319.159H272.298C272.975 319.159 273.626 318.759 274.105 318.048C274.584 317.336 274.854 316.371 274.854 315.364C274.854 314.358 274.584 313.393 274.105 312.681C273.626 311.97 272.975 311.57 272.298 311.57H151.803Z" fill="#E6E6E6"/>
<path d="M151.803 334.337C151.125 334.337 150.475 334.737 149.995 335.449C149.516 336.16 149.247 337.125 149.247 338.132C149.247 339.138 149.516 340.103 149.995 340.815C150.475 341.527 151.125 341.926 151.803 341.926H203.652C203.988 341.927 204.321 341.829 204.631 341.639C204.942 341.449 205.224 341.169 205.462 340.817C205.699 340.464 205.888 340.046 206.017 339.585C206.145 339.124 206.212 338.631 206.212 338.132C206.212 337.633 206.145 337.139 206.017 336.678C205.888 336.218 205.699 335.799 205.462 335.447C205.224 335.094 204.942 334.815 204.631 334.624C204.321 334.434 203.988 334.336 203.652 334.337H151.803Z" fill="#E6E6E6"/>
<path d="M336.396 282.624H133.097C132.099 282.623 131.142 282.033 130.436 280.985C129.731 279.938 129.334 278.517 129.332 277.035V144.583C129.334 143.101 129.731 141.681 130.436 140.633C131.142 139.585 132.099 138.996 133.097 138.994H336.396C337.394 138.996 338.351 139.585 339.056 140.633C339.762 141.681 340.159 143.101 340.16 144.583V277.035C340.159 278.517 339.762 279.938 339.056 280.986C338.351 282.033 337.394 282.623 336.396 282.624Z" fill="#006BA6"/>
<path d="M174.499 185.161C173.822 185.163 173.172 185.563 172.694 186.274C172.215 186.986 171.947 187.95 171.947 188.956C171.947 189.961 172.215 190.925 172.694 191.637C173.172 192.348 173.822 192.749 174.499 192.75H294.994C295.671 192.749 296.32 192.348 296.799 191.637C297.277 190.925 297.546 189.961 297.546 188.956C297.546 187.95 297.277 186.986 296.799 186.274C296.32 185.563 295.671 185.163 294.994 185.161H174.499Z" fill="white"/>
<path d="M174.499 207.148C173.822 207.149 173.172 207.55 172.694 208.261C172.215 208.973 171.947 209.937 171.947 210.943C171.947 211.948 172.215 212.912 172.694 213.624C173.172 214.335 173.822 214.736 174.499 214.737H294.994C295.671 214.736 296.32 214.335 296.799 213.624C297.277 212.912 297.546 211.948 297.546 210.943C297.546 209.937 297.277 208.973 296.799 208.261C296.32 207.55 295.671 207.149 294.994 207.148H174.499Z" fill="white"/>
<path d="M174.499 228.868C173.822 228.87 173.172 229.27 172.694 229.982C172.215 230.693 171.947 231.657 171.947 232.663C171.947 233.668 172.215 234.633 172.694 235.344C173.172 236.055 173.822 236.456 174.499 236.457H226.348C226.684 236.458 227.017 236.361 227.327 236.17C227.638 235.98 227.92 235.7 228.158 235.348C228.396 234.996 228.584 234.577 228.713 234.116C228.842 233.655 228.908 233.162 228.908 232.663C228.908 232.164 228.842 231.67 228.713 231.209C228.584 230.749 228.396 230.33 228.158 229.978C227.92 229.625 227.638 229.346 227.327 229.156C227.017 228.965 226.684 228.868 226.348 228.868H174.499Z" fill="white"/>
<path d="M336.77 296.897C345.24 296.897 352.106 286.704 352.106 274.13C352.106 261.556 345.24 251.363 336.77 251.363C328.3 251.363 321.434 261.556 321.434 274.13C321.434 286.704 328.3 296.897 336.77 296.897Z" fill="#3F3D56"/>
<path d="M335.492 284.197L330.624 274.906L333.455 271.637L335.759 276.037L343.545 263.835L346.149 267.497L335.492 284.197Z" fill="white"/>
<path d="M311.462 40.1249L286.542 48.5911L276.013 19.1105L297.321 6.76022L311.462 40.1249Z" fill="#2F2E41"/>
<path d="M332.169 249.508L341.508 236.909L321.367 169.461L303.768 137.3L332.522 155.776L335.514 202.823L349.813 210.126L347.959 151.385C347.844 147.722 347.022 144.185 345.591 141.196C344.16 138.206 342.18 135.89 339.888 134.524L316.298 120.455L312.074 94.1337L287.446 93.6104C279.793 113.38 276.373 130.779 281.896 143.171L307.522 180.274L332.169 249.508Z" fill="#2F2E41"/>
<path d="M336.523 240.876C336.523 240.876 337.85 234.987 339.931 236.342C342.012 237.698 347.84 244.566 347.84 244.566C347.84 244.566 357.576 246.61 351.478 251.848C345.38 257.086 342.995 256.76 342.8 256.019C342.606 255.278 341.024 253.634 341.024 253.634L338.723 255.819L334.841 256.36C334.841 256.36 329.758 243.577 331.394 243.238C333.029 242.899 336.607 243.388 336.523 240.876Z" fill="#2F2E41"/>
<path d="M342.664 204.759C342.664 204.759 346.713 203.196 347.084 206.525C347.454 209.853 346.758 220.852 346.758 220.852C346.758 220.852 350.916 234.08 344.632 229.352C338.348 224.624 337.23 221.478 337.542 220.832C337.854 220.185 337.92 217.32 337.92 217.32L335.431 215.651L333.007 211.116C333.007 211.116 337.449 197.816 338.533 199.666C339.617 201.517 341.293 206.235 342.664 204.759Z" fill="#2F2E41"/>
<path d="M290.412 37.3707C295.397 37.3707 299.439 31.3711 299.439 23.9702C299.439 16.5693 295.397 10.5697 290.412 10.5697C285.427 10.5697 281.386 16.5693 281.386 23.9702C281.386 31.3711 285.427 37.3707 290.412 37.3707Z" fill="#FFB9B9"/>
<path d="M289.364 68.1278L311.275 63.4318C308.004 54.6426 304.632 46.6322 300.1 47.5279C296.067 43.3384 295.835 36.6035 296.855 29.0298L285.887 33.3823C286.852 38.0509 286.479 42.1504 283.909 45.3156C287.5 52.8209 289.824 60.3967 289.364 68.1278Z" fill="#FFB9B9"/>
<path d="M287.708 96.6553C295.493 111.705 303.478 117.651 312.063 96.1382L312.77 86.5388C318.279 76.2252 316.666 67.3131 309.948 59.4055L306.708 48.0965L301.826 46.928C302.469 48.0307 302.877 49.3915 303 50.8386C303.122 52.2858 302.952 53.7542 302.513 55.0585C302.073 56.3628 301.383 57.4445 300.53 58.1669C299.676 58.8892 298.698 59.2199 297.718 59.1172L295.953 58.9322C295.299 58.8636 294.66 58.6034 294.074 58.1668C293.488 57.7301 292.966 57.1256 292.538 56.388L285.037 43.4637L281.877 44.7178C281.519 44.8599 281.2 45.1644 280.964 45.5888C280.728 46.0133 280.587 46.5365 280.561 47.0855L279.536 68.6238C284.047 76.0422 286.642 85.5249 287.708 96.6553Z" fill="#E6E6E6"/>
<path d="M284.222 87.486L266.978 82.2879L278.431 66.4668L274.072 54.7636L255.56 83.9949C255.242 84.5319 255.03 85.188 254.945 85.892C254.861 86.5959 254.909 87.3207 255.083 87.9873C255.257 88.6539 255.551 89.2369 255.932 89.6728C256.314 90.1087 256.769 90.3809 257.248 90.4596L282.319 94.5815L283.347 101.317C283.484 102.213 283.764 103.047 284.164 103.748C284.564 104.45 285.071 104.998 285.644 105.347C286.216 105.695 286.837 105.834 287.453 105.752C288.07 105.669 288.664 105.367 289.185 104.872C289.667 104.414 290.075 103.802 290.378 103.08C290.681 102.358 290.872 101.546 290.937 100.701C291.002 99.8559 290.939 99.0002 290.754 98.1957C290.568 97.3913 290.264 96.6584 289.863 96.0504L284.222 87.486Z" fill="#FFB9B9"/>
<path d="M311.033 129.098L308.744 137.945C308.52 138.81 308.423 139.735 308.458 140.659C308.493 141.584 308.659 142.487 308.947 143.308C309.235 144.13 309.636 144.852 310.126 145.426C310.615 146 311.181 146.413 311.786 146.639C312.495 146.903 313.237 146.901 313.945 146.634C314.653 146.366 315.306 145.842 315.843 145.107C316.381 144.372 316.788 143.45 317.026 142.425C317.264 141.399 317.327 140.301 317.208 139.231L316.24 130.478L319.423 95.4722L316.578 72.3478L310.088 75.3061L312.245 96.8317L311.033 129.098Z" fill="#FFB9B9"/>
<path d="M308.584 77.7754L318.395 72.0947L312.927 54.3063C312.343 52.4058 311.421 50.7771 310.261 49.5948C309.101 48.4125 307.746 47.7211 306.341 47.5947L303.826 47.3683L308.584 77.7754Z" fill="#E6E6E6"/>
<path d="M276.266 70.5175L286.726 65.2599L283.038 46.6315C282.919 46.0285 282.659 45.5083 282.304 45.1643C281.95 44.8203 281.524 44.6751 281.104 44.7547C280.749 44.8219 280.416 45.0467 280.148 45.3995L269.462 59.4739C271.506 64.4701 273.683 64.5954 276.266 70.5175Z" fill="#E6E6E6"/>
<path d="M296.409 2.21429C296.409 2.21429 301.929 3.75585 303.206 13.977C303.406 15.7008 303.442 17.4574 303.314 19.1961C303.186 21.1636 303.371 25.3191 306.249 30.2122C308.127 33.3858 309.876 36.7215 311.488 40.2019L305.72 42.4816L303.143 28.2935C301.893 21.4147 299.969 14.8466 297.43 8.80034L297.377 8.67412C297.377 8.67412 295.461 16.2738 290.326 17.3156L291.91 14.221C291.91 14.221 285.907 19.3726 282.506 20.9463C282.118 21.126 281.77 21.4595 281.5 21.9109C281.23 22.3623 281.048 22.9144 280.974 23.5079C280.9 24.1013 280.936 24.7136 281.079 25.2787C281.222 25.8438 281.466 26.3403 281.785 26.7148C281.809 26.743 281.834 26.7711 281.859 26.7994C284.36 29.62 289.463 36.3503 287.447 42.8609C285.431 49.3715 287.782 50.5586 287.782 50.5586L283.447 48.11L281.462 46.8486L281.663 49.0266L271.976 49.3279C271.976 49.3279 269.359 49.3043 274.008 38.9312C274.008 38.9312 275.13 35.0417 274.209 32.0703C273.47 29.82 273.102 27.3409 273.135 24.8378C273.428 14.3797 276.396 -6.89613 296.409 2.21429Z" fill="#2F2E41"/>
</svg>
