<svg width="21" height="20" viewBox="0 0 21 20" fill="none" xmlns="http://www.w3.org/2000/svg">
<path d="M11.5417 9H5.29166C5.01539 9 4.75044 9.10536 4.55509 9.29289C4.35974 9.48043 4.24999 9.73478 4.24999 10C4.24999 10.2652 4.35974 10.5196 4.55509 10.7071C4.75044 10.8946 5.01539 11 5.29166 11H11.5417C11.8179 11 12.0829 10.8946 12.2782 10.7071C12.4736 10.5196 12.5833 10.2652 12.5833 10C12.5833 9.73478 12.4736 9.48043 12.2782 9.29289C12.0829 9.10536 11.8179 9 11.5417 9ZM15.7083 5H5.29166C5.01539 5 4.75044 5.10536 4.55509 5.29289C4.35974 5.48043 4.24999 5.73478 4.24999 6C4.24999 6.26522 4.35974 6.51957 4.55509 6.70711C4.75044 6.89464 5.01539 7 5.29166 7H15.7083C15.9846 7 16.2495 6.89464 16.4449 6.70711C16.6402 6.51957 16.75 6.26522 16.75 6C16.75 5.73478 16.6402 5.48043 16.4449 5.29289C16.2495 5.10536 15.9846 5 15.7083 5ZM17.7917 0H3.20833C2.37953 0 1.58467 0.316071 0.99862 0.87868C0.412568 1.44129 0.0833282 2.20435 0.0833282 3V13C0.0833282 13.7956 0.412568 14.5587 0.99862 15.1213C1.58467 15.6839 2.37953 16 3.20833 16H15.2812L19.1354 19.71C19.2327 19.8027 19.3482 19.876 19.4751 19.9258C19.602 19.9755 19.7379 20.0008 19.875 20C20.0116 20.0034 20.1472 19.976 20.2708 19.92C20.4611 19.845 20.6239 19.7176 20.7388 19.5539C20.8538 19.3901 20.9156 19.1974 20.9167 19V3C20.9167 2.20435 20.5874 1.44129 20.0014 0.87868C19.4153 0.316071 18.6205 0 17.7917 0ZM18.8333 16.59L16.4479 14.29C16.3506 14.1973 16.2351 14.124 16.1082 14.0742C15.9813 14.0245 15.8454 13.9992 15.7083 14H3.20833C2.93206 14 2.66711 13.8946 2.47176 13.7071C2.27641 13.5196 2.16666 13.2652 2.16666 13V3C2.16666 2.73478 2.27641 2.48043 2.47176 2.29289C2.66711 2.10536 2.93206 2 3.20833 2H17.7917C18.0679 2 18.3329 2.10536 18.5282 2.29289C18.7236 2.48043 18.8333 2.73478 18.8333 3V16.59Z" fill="black"/>
</svg>
