<svg width="21" height="20" viewBox="0 0 21 20" fill="none" xmlns="http://www.w3.org/2000/svg">
<path d="M20.1875 8.07998C19.8948 7.74263 19.5286 7.47107 19.1146 7.28445C18.7006 7.09784 18.249 7.00073 17.7917 6.99998H13.0417L13.625 5.56998C13.8676 4.94387 13.9485 4.27059 13.8605 3.6079C13.7725 2.94522 13.5184 2.31291 13.12 1.76521C12.7216 1.21752 12.1907 0.77078 11.5729 0.463327C10.9551 0.155873 10.2688 -0.00312046 9.57293 -1.64439e-05C9.37255 0.000384918 9.17655 0.0562588 9.00842 0.160906C8.84029 0.265554 8.70716 0.414533 8.62501 0.589983L5.65626 6.99998H3.20834C2.37954 6.99998 1.58469 7.31605 0.998635 7.87866C0.412584 8.44127 0.0833435 9.20433 0.0833435 9.99998V17C0.0833435 17.7956 0.412584 18.5587 0.998635 19.1213C1.58469 19.6839 2.37954 20 3.20834 20H16.4688C17.1998 19.9997 17.9076 19.7535 18.4691 19.304C19.0305 18.8545 19.4101 18.2303 19.5417 17.54L20.8646 10.54C20.9464 10.1074 20.9282 9.66276 20.8112 9.23766C20.6942 8.81255 20.4813 8.41734 20.1875 8.07998ZM5.29168 18H3.20834C2.93208 18 2.66712 17.8946 2.47177 17.7071C2.27642 17.5196 2.16668 17.2652 2.16668 17V9.99998C2.16668 9.73477 2.27642 9.48041 2.47177 9.29288C2.66712 9.10534 2.93208 8.99998 3.20834 8.99998H5.29168V18ZM18.8333 10.18L17.5104 17.18C17.4661 17.4129 17.337 17.6232 17.1462 17.7734C16.9555 17.9235 16.7154 18.0038 16.4688 18H7.37501V8.20998L10.2083 2.08998C10.5 2.17161 10.7709 2.31039 11.0038 2.49757C11.2368 2.68474 11.4268 2.91625 11.5619 3.17748C11.697 3.4387 11.7742 3.72397 11.7886 4.01528C11.8031 4.30659 11.7544 4.59762 11.6458 4.86998L11.0938 6.29998C10.9761 6.60224 10.9364 6.92733 10.978 7.24751C11.0196 7.5677 11.1413 7.87347 11.3326 8.13872C11.524 8.40398 11.7794 8.62085 12.077 8.77082C12.3746 8.9208 12.7056 8.99942 13.0417 8.99998H17.7917C17.9447 8.99975 18.0959 9.03188 18.2345 9.0941C18.3732 9.15632 18.4958 9.2471 18.5938 9.35998C18.6941 9.47131 18.7676 9.60253 18.809 9.74428C18.8504 9.88602 18.8587 10.0348 18.8333 10.18Z" fill="black"/>
</svg>
