<svg width="19" height="20" viewBox="0 0 19 20" fill="none" xmlns="http://www.w3.org/2000/svg">
<path d="M7.63542 4.21002L8.45833 3.41002V8.00002C8.45833 8.26524 8.56808 8.51959 8.76343 8.70712C8.95878 8.89466 9.22373 9.00002 9.5 9.00002C9.77627 9.00002 10.0412 8.89466 10.2366 8.70712C10.4319 8.51959 10.5417 8.26524 10.5417 8.00002V3.41002L11.3646 4.21002C11.4614 4.30375 11.5766 4.37814 11.7036 4.42891C11.8305 4.47968 11.9667 4.50582 12.1042 4.50582C12.2417 4.50582 12.3778 4.47968 12.5048 4.42891C12.6317 4.37814 12.7469 4.30375 12.8437 4.21002C12.9414 4.11706 13.0189 4.00645 13.0718 3.8846C13.1246 3.76274 13.1519 3.63203 13.1519 3.50002C13.1519 3.36801 13.1246 3.2373 13.0718 3.11544C13.0189 2.99358 12.9414 2.88298 12.8437 2.79002L10.2396 0.290018C10.1405 0.198978 10.0237 0.127613 9.89583 0.0800184C9.64223 -0.0199996 9.35777 -0.0199996 9.10417 0.0800184C8.9763 0.127613 8.85948 0.198978 8.76042 0.290018L6.15625 2.79002C5.9601 2.97832 5.8499 3.23372 5.8499 3.50002C5.8499 3.76632 5.9601 4.02171 6.15625 4.21002C6.3524 4.39832 6.61844 4.50411 6.89583 4.50411C7.17323 4.50411 7.43927 4.39832 7.63542 4.21002V4.21002ZM15.75 5.56002C15.6515 5.46547 15.5346 5.39046 15.4059 5.33929C15.2772 5.28812 15.1393 5.26179 15 5.26179C14.8607 5.26179 14.7228 5.28812 14.5941 5.33929C14.4654 5.39046 14.3485 5.46547 14.25 5.56002C14.1515 5.65457 14.0734 5.76682 14.0201 5.89036C13.9668 6.0139 13.9393 6.1463 13.9393 6.28002C13.9393 6.41373 13.9668 6.54614 14.0201 6.66968C14.0734 6.79322 14.1515 6.90547 14.25 7.00002C15.1899 7.90197 15.83 9.05125 16.0895 10.3025C16.3489 11.5537 16.216 12.8507 15.7076 14.0295C15.1991 15.2082 14.3379 16.2157 13.233 16.9245C12.128 17.6334 10.8289 18.0117 9.5 18.0117C8.17105 18.0117 6.87195 17.6334 5.76701 16.9245C4.66206 16.2157 3.8009 15.2082 3.29245 14.0295C2.78399 12.8507 2.65109 11.5537 2.91053 10.3025C3.16997 9.05125 3.81012 7.90197 4.75 7.00002C4.84849 6.90547 4.92662 6.79322 4.97992 6.66968C5.03323 6.54614 5.06066 6.41373 5.06066 6.28002C5.06066 6.1463 5.03323 6.0139 4.97992 5.89036C4.92662 5.76682 4.84849 5.65457 4.75 5.56002C4.65151 5.46547 4.53458 5.39046 4.4059 5.33929C4.27721 5.28812 4.13929 5.26179 4 5.26179C3.86071 5.26179 3.72279 5.28812 3.5941 5.33929C3.46542 5.39046 3.34849 5.46547 3.25 5.56002C2.02283 6.74518 1.18875 8.25268 0.852993 9.89238C0.517232 11.5321 0.694824 13.2305 1.36337 14.7734C2.03191 16.3163 3.16146 17.6346 4.60952 18.562C6.05758 19.4893 7.7593 19.9842 9.5 19.9842C11.2407 19.9842 12.9424 19.4893 14.3905 18.562C15.8385 17.6346 16.9681 16.3163 17.6366 14.7734C18.3052 13.2305 18.4828 11.5321 18.147 9.89238C17.8112 8.25268 16.9772 6.74518 15.75 5.56002V5.56002Z" fill="black"/>
</svg>
