<svg width="52" height="52" viewBox="0 0 52 52" fill="none" xmlns="http://www.w3.org/2000/svg">
<path d="M26 8.125C21.5127 8.125 17.875 11.7627 17.875 16.25C17.875 20.7373 21.5127 24.375 26 24.375C30.4873 24.375 34.125 20.7373 34.125 16.25C34.125 11.7627 30.4873 8.125 26 8.125Z" fill="#04E762"/>
<path d="M17.3333 28.7083C12.846 28.7083 9.20834 32.346 9.20834 36.8333V39.4079C9.20834 41.0399 10.3911 42.4315 12.0018 42.6944C21.2726 44.208 30.7275 44.208 39.9983 42.6944C41.6089 42.4315 42.7917 41.0399 42.7917 39.4079V36.8333C42.7917 32.346 39.154 28.7083 34.6667 28.7083H33.9281C33.5284 28.7083 33.1312 28.7715 32.7512 28.8956L30.8759 29.508C27.7076 30.5425 24.2924 30.5425 21.1241 29.508L19.2488 28.8956C18.8688 28.7715 18.4716 28.7083 18.0719 28.7083H17.3333Z" fill="#04E762"/>
</svg>
